<svg width="55" height="55" viewBox="0 0 55 55" fill="none" xmlns="http://www.w3.org/2000/svg">
<circle cx="27.5" cy="27.5" r="27.5" fill="#1D19FF"/>
<g filter="url(#filter0_d)">
<path d="M33.0958 26.2707C34.4101 25.2881 35.1745 23.7983 35.1745 21.9593C35.1745 18.2823 33.0346 16 28.7844 16H19.9331C19.351 16 19 16.4082 19 16.8698V37.0513C19 37.624 19.2337 37.9958 19.9331 37.9998C20.0312 38.0003 20.1844 37.9998 20.2135 37.9998H29.3348C33.4316 37.9998 36 35.4639 36 31.5328C36 29.0288 34.8997 27.2533 33.0958 26.2707ZM31.261 22.2129C31.261 23.6712 30.1602 24.6539 28.7844 24.6539H23.4782C23.4395 24.656 23.4649 24.6547 23.4257 24.6539C23.1676 24.6495 23.0363 24.4954 23.0363 24.1695V23.9989L23.0368 23.9952L23.0335 20.3821C23.0335 20.3821 23.0352 20.3743 23.0332 20.3398V20.2969C23.0332 19.9802 23.1705 19.8041 23.4257 19.8041H28.7844C30.3133 19.8041 31.261 20.7547 31.261 22.2129ZM28.7844 34.1641H23.4257C23.1721 34.1673 23.0476 33.9779 23.0363 33.7289V33.5582L23.0368 33.5548L23.0363 29.0788V29.0579C23.0363 29.0579 23.0385 29.0551 23.0363 29.0205V28.9729C23.0363 28.6833 23.191 28.4898 23.4257 28.4898H28.6925C30.7411 28.4898 31.8725 29.5358 31.8725 31.3747C31.8725 33.5298 30.3434 34.1641 28.7844 34.1641Z" fill="white"/>
</g>
<defs>
<filter id="filter0_d" x="14" y="12" width="29" height="34" filterUnits="userSpaceOnUse" color-interpolation-filters="sRGB">
<feFlood flood-opacity="0" result="BackgroundImageFix"/>
<feColorMatrix in="SourceAlpha" type="matrix" values="0 0 0 0 0 0 0 0 0 0 0 0 0 0 0 0 0 0 127 0"/>
<feOffset dx="1" dy="2"/>
<feGaussianBlur stdDeviation="3"/>
<feColorMatrix type="matrix" values="0 0 0 0 0 0 0 0 0 0 0 0 0 0 0 0 0 0 0.1 0"/>
<feBlend mode="normal" in2="BackgroundImageFix" result="effect1_dropShadow"/>
<feBlend mode="normal" in="SourceGraphic" in2="effect1_dropShadow" result="shape"/>
</filter>
</defs>
</svg>
